<svg xmlns="http://www.w3.org/2000/svg" viewBox="0 0 32 32">
  <rect width="32" height="32" rx="7" fill="#e11d48"/>
  <path
    fill="none"
    stroke="white"
    stroke-width="1.5"
    stroke-linecap="round"
    stroke-linejoin="round"
    d="M13.084 20.539 12 23.5l-1.084-2.961a6 6 0 0 0-4.12-4.12L3.5 15.333l2.296-.654a6 6 0 0 0 4.12-4.12L11 7.5l1.084 2.96a6 6 0 0 0 4.12 4.12l2.296.654-2.296.654a6 6 0 0 0-4.12 4.12ZM23.012 11.953 22.667 13l-.345-1.047a4.5 4.5 0 0 0-3.275-3.275L18 8.333l1.047-.345a4.5 4.5 0 0 0 3.275-3.275L22.667 3.5l.345 1.213a4.5 4.5 0 0 0 3.275 3.275L27.5 8.333l-1.213.345a4.5 4.5 0 0 0-3.275 3.275ZM22.526 27.18 22.167 28l-.36-1.18a3 3 0 0 0-1.893-1.893L18.833 24.5l1.081-.36a3 3 0 0 0 1.893-1.893l.36-1.08.36 1.08a3 3 0 0 0 1.893 1.893l1.08.36-1.08.427a3 3 0 0 0-1.893 1.893Z"
  />
</svg>
